<svg width="60" height="80" viewBox="0 0 60 80" fill="none" xmlns="http://www.w3.org/2000/svg">
<g clip-path="url(#clip0_6_350)">
<path d="M57.7809 16.6044L42.7148 2.35094C41.1123 0.834844 39.0148 0 36.8089 0H8.125C3.38641 0 -0.46875 3.85516 -0.46875 8.59375V71.4062C-0.46875 76.1448 3.38641 80 8.125 80H51.875C56.6136 80 60.4688 76.1448 60.4688 71.4062V22.8472C60.4688 20.4958 59.4891 18.2203 57.7809 16.6044ZM53.2283 18.75H41.5625C41.1317 18.75 40.7812 18.3995 40.7812 17.9688V6.97438L53.2283 18.75ZM51.875 75.3125H8.125C5.97109 75.3125 4.21875 73.5602 4.21875 71.4062V8.59375C4.21875 6.43984 5.97109 4.6875 8.125 4.6875H36.0938V17.9688C36.0938 20.9842 38.547 23.4375 41.5625 23.4375H55.7812V71.4062C55.7812 73.5602 54.0289 75.3125 51.875 75.3125Z" fill="white"/>
<path d="M46.7188 31.25H12.3438C11.0494 31.25 10 32.2994 10 33.5938C10 34.8881 11.0494 35.9375 12.3438 35.9375H46.7188C48.0131 35.9375 49.0625 34.8881 49.0625 33.5938C49.0625 32.2994 48.0131 31.25 46.7188 31.25Z" fill="white"/>
<path d="M46.7188 43.75H12.3438C11.0494 43.75 10 44.7994 10 46.0938C10 47.3881 11.0494 48.4375 12.3438 48.4375H46.7188C48.0131 48.4375 49.0625 47.3881 49.0625 46.0938C49.0625 44.7994 48.0131 43.75 46.7188 43.75Z" fill="white"/>
<path d="M23.7063 56.25H12.3438C11.0494 56.25 10 57.2994 10 58.5938C10 59.8881 11.0494 60.9375 12.3438 60.9375H23.7063C25.0006 60.9375 26.05 59.8881 26.05 58.5938C26.05 57.2994 25.0006 56.25 23.7063 56.25Z" fill="white"/>
</g>
<defs>
<clipPath id="clip0_6_350">
<rect width="60" height="80" fill="white"/>
</clipPath>
</defs>
</svg>
